<svg width="327" height="48" viewBox="0 0 327 48" xmlns="http://www.w3.org/2000/svg">
    <g fill="#FFF" fill-rule="evenodd">
        <path d="M193.962 10.309h3.448C197.144 4.383 192.018 0 184.757 0c-7.202 0-12.747 4.325-12.747 10.614 0 5.011 3.544 8.155 9.66 9.966l4.67 1.372c4.84 1.41 8.155 3.22 8.155 7.203 0 4.687-4.25 7.831-10.08 7.831-5.26 0-9.376-2.535-9.757-7.164H171c.42 6.174 5.45 10.423 13.415 10.423 8.46 0 13.529-4.783 13.529-11.033 0-6.48-5.64-9.07-10.595-10.462l-4.116-1.181c-3.792-1.067-7.774-2.992-7.774-7.108 0-4.192 3.753-7.26 9.203-7.26 5.165 0 8.861 2.763 9.3 7.108zm21.557 29.879c5.869 0 9.813-3.182 11.147-6.86l-3.22-1.048c-1.124 2.63-3.773 4.802-7.927 4.802-5.984 0-9.776-4.364-9.928-11.129h21.8v-1.676c0-9.776-6.04-14.369-12.387-14.369-7.583 0-12.824 6.346-12.824 15.207 0 8.88 5.145 15.073 13.339 15.073zm-9.909-17.226c.362-5.45 4.04-9.967 9.394-9.967 5.241 0 8.918 4.326 8.918 9.967H205.61zm35.258 17.283c4.878 0 7.851-2.706 9.07-5.298h.21v4.631h3.392V19.703c0-7.851-5.906-9.795-10.385-9.795-4.478 0-9.09 1.772-11.07 6.555l3.219 1.163c1.068-2.515 3.716-4.669 7.946-4.669 4.44 0 6.898 2.44 6.898 6.441v.686c0 2.21-2.744 2.249-7.66 2.858-6.612.82-11.243 2.668-11.243 8.461 0 5.64 4.307 8.842 9.623 8.842zm.458-3.106c-3.83 0-6.69-2.04-6.69-5.584 0-3.544 2.897-5.03 7.852-5.64 2.4-.286 6.67-.82 7.66-1.791v4.23c0 4.802-3.41 8.785-8.822 8.785zm19.08 2.44h3.392V20.674c0-4.345 3.335-7.49 7.908-7.49.895 0 1.734.154 2.04.191V9.928c-.459-.02-1.24-.058-1.792-.058-3.678 0-6.822 1.982-8.003 4.936h-.248v-4.497h-3.297v29.27zm27.504.609c6.097 0 10.385-3.85 11.166-9.147h-3.43c-.78 3.735-3.849 6.04-7.736 6.04-5.736 0-9.528-4.992-9.528-12.118 0-7.09 3.906-11.968 9.528-11.968 4.173 0 6.993 2.687 7.717 6.003h3.43c-.8-5.431-5.335-9.09-11.204-9.09-7.66 0-12.882 6.365-12.882 15.169 0 8.727 5.07 15.11 12.94 15.11zm19.671-18.903c0-5.107 3.43-8.251 8.118-8.251 4.535 0 7.431 2.972 7.431 7.793v18.751h3.411v-18.96c0-6.975-4.04-10.69-9.984-10.69-4.421 0-7.299 1.943-8.67 4.973h-.306V.552h-3.392v39.026h3.392V21.285zM19.89 0c10.966 0 19.888 8.922 19.888 19.889 0 10.76-8.59 19.55-19.272 19.878l-.345.008h19.55L42.29 48H22.466l-2.58-8.222C8.922 39.777 0 30.855 0 19.89 0 8.922 8.922 0 19.89 0zm91.317 9.78v29.751h-6.729V35.65a14.806 14.806 0 0 1-9.782 3.674c-8.165 0-14.807-6.596-14.807-14.703S86.531 9.918 94.696 9.918c3.746 0 7.172 1.388 9.782 3.674V9.781h6.729zm-62.94 0 2.941 10.932L53.1 28.11l.05.191.021.086h.08l4.41-18.606h6.675l4.343 18.19.083.358.013.058h.201l5.113-18.606h7.398l-9.808 29.732h-6.341L62.61 28.555c-.416-1.665-1.113-5.499-1.43-7.444l-.046-.291h-.065a6.127 6.127 0 0 1-.108.607c-.169.79-.899 3.744-1.404 5.719l-.062.241-3.226 12.126h-6.174L40.924 9.781h7.342zM19.888 6.729c-7.257 0-13.16 5.904-13.16 13.161s5.903 13.16 13.16 13.16c7.257 0 13.161-5.903 13.161-13.16 0-7.257-5.904-13.16-13.16-13.16zm74.807 9.918a8.077 8.077 0 0 0-5.723 2.347 7.872 7.872 0 0 0-2.356 5.628c0 2.124.837 4.123 2.356 5.628a8.078 8.078 0 0 0 5.723 2.347 8.078 8.078 0 0 0 5.724-2.347 7.873 7.873 0 0 0 2.355-5.628 7.872 7.872 0 0 0-2.355-5.628 8.078 8.078 0 0 0-5.724-2.347zm33.38-6.562c-2.376 0-4.569.591-6.462 1.65V9.787h-6.85v13.47c-.017.303-.026.608-.026.917V39.53h6.876V23.443c.313-4.465 3.495-6.508 6.462-6.508 3.86 0 6.661 3.044 6.661 7.239V39.53h6.85V24.174c0-3.757-1.319-7.26-3.715-9.862-2.512-2.726-5.99-4.228-9.796-4.228M146.41 0v9.801h-3.448v6.007h3.448v23.723h6.898V15.808h6.646V9.801h-6.59V0h-6.954z"/>
    </g>
</svg>
